# xmcd
#
# Track frame offsets:
#	150
#	13048
#	28152
#	48556
#	66150
#	82690
#	97849
#	114753
#	130688
#	143294
#	157869
#	171797
#	190139
#	211695
#	223919
#	240361
#	254086
#	270685
#	285054
#	297948
#	318173
#	333565
#
# Disc length: 4656 seconds
#
# Revision: 1
# Processed by: cddbd v1.5.2PL0 Copyright (c) Steve Scherf et al.
# Submitted via: audiograbber 1.83.01
#
DISCID=26122e16
DTITLE=Various Artist - Hit Country Summer Party
DYEAR=2008
DGENRE=Country
TTITLE0=Steve Forde - Summer's Little Angel
TTITLE1=Big and Rich - Save A Horse, Ride A Cowboy
TTITLE2=Kenny Chesney - Beer In Mexico
TTITLE3=James Blundell - Down On The Farm
TTITLE4=The Sunny Cowgilrs - Cuttin' Up B&S Style
TTITLE5=Marty Stuart - Now That's Country
TTITLE6=Lee Kernaghan - Love Shack
TTITLE7=Shania Twain ft. Mark McGrath - Party For Two
TTITLE8=Emerson Drive - Fall Into Me
TTITLE9=Shea Fisher - Just The Excuse (Pop Mix)
TTITLE10=Mark Chesnutt - Bubba Shot The Jukebox
TTITLE11=Jetty Road - Real Smooth Cowboy
TTITLE12=Dwight Yoakam - Fast As You
TTITLE13=Jonah's Road - Jonah's Road
TTITLE14=Adam Brand - Cigarettes and Whiskey
TTITLE15=Ronnie Rae Rivers - Cowboys Come Home
TTITLE16=Blakey - Danielle - Driving Song
TTITLE17=Vince Gill - One More Last Chance
TTITLE18=Sugraland - Down To Mississippi (And Up To No Good)
TTITLE19=Travis Collins - Start The Car
TTITLE20=SheDaisy - Passenger Seat
TTITLE21=Catherine Britt - Little Wildflower
EXTD=
EXTT0=
EXTT1=
EXTT2=
EXTT3=
EXTT4=
EXTT5=
EXTT6=
EXTT7=
EXTT8=
EXTT9=
EXTT10=
EXTT11=
EXTT12=
EXTT13=
EXTT14=
EXTT15=
EXTT16=
EXTT17=
EXTT18=
EXTT19=
EXTT20=
EXTT21=
PLAYORDER=
